<?xml version="1.0" standalone="no"?>
<!DOCTYPE svg PUBLIC "-//W3C//DTD SVG 20010904//EN"
 "http://www.w3.org/TR/2001/REC-SVG-20010904/DTD/svg10.dtd">
<svg version="1.0" xmlns="http://www.w3.org/2000/svg"
 width="260.000000pt" height="260.000000pt" viewBox="0 0 260.000000 260.000000"
 preserveAspectRatio="xMidYMid meet">
<metadata>
Created by potrace 1.11, written by Peter Selinger 2001-2013
</metadata>
<g transform="translate(0.000000,260.000000) scale(0.100000,-0.100000)"
fill="#000000" stroke="none">
<path d="M719 2275 c-1 0 -3 -85 -4 -190 -2 -104 -3 -192 -4 -195 -1 -3 -86
-5 -191 -5 -104 0 -191 -2 -191 -5 -3 -13 -5 -366 -2 -375 2 -7 70 -10 193
-10 164 1 190 -1 191 -15 3 -37 5 -356 2 -365 -2 -7 -72 -10 -193 -10 -105 1
-191 -1 -191 -4 -3 -14 -5 -367 -2 -377 2 -6 66 -10 186 -9 100 1 187 0 192
-2 7 -2 10 -72 10 -193 -1 -124 3 -191 9 -193 6 -2 94 -3 196 -3 l185 1 0 193
c0 163 2 192 15 193 39 3 356 5 365 2 7 -2 10 -73 10 -193 0 -121 3 -191 10
-193 5 -2 93 -3 195 -3 l185 1 1 190 c1 105 2 192 3 195 1 3 88 5 193 5 l193
0 1 185 c0 102 -1 190 -3 195 -2 7 -65 11 -181 10 -97 0 -184 1 -192 3 -13 3
-15 32 -15 193 0 104 2 190 5 190 3 1 91 2 195 3 l190 1 0 195 0 195 -185 1
c-102 1 -190 2 -195 3 -7 1 -10 68 -10 191 1 124 -3 191 -9 193 -6 2 -94 3
-196 3 l-185 -1 -1 -190 c-1 -104 -2 -192 -3 -195 0 -3 -85 -5 -188 -5 -158 0
-189 2 -194 15 -3 8 -5 95 -4 193 0 97 -2 178 -5 178 -3 1 -368 5 -381 4z
m773 -800 c3 -17 2 -330 -1 -360 -1 -8 -313 -13 -376 -6 -6 1 -10 70 -9 189 1
103 2 189 3 192 0 3 86 5 190 5 182 0 190 -1 193 -20z"/>
</g>
</svg>
