<?xml version="1.0" standalone="no"?>
<!DOCTYPE svg PUBLIC "-//W3C//DTD SVG 20010904//EN"
 "http://www.w3.org/TR/2001/REC-SVG-20010904/DTD/svg10.dtd">
<svg version="1.0" xmlns="http://www.w3.org/2000/svg"
 width="480.000000pt" height="480.000000pt" viewBox="0 0 480.000000 480.000000"
 preserveAspectRatio="xMidYMid meet">
<metadata>
Created by potrace 1.11, written by Peter Selinger 2001-2013
</metadata>
<g transform="translate(0.000000,480.000000) scale(0.100000,-0.100000)"
fill="#000000" stroke="none">
<path d="M1151 4108 c0 -205 0 -392 -1 -415 l0 -43 -415 0 -415 0 0 -414 c0
-386 1 -414 17 -418 10 -2 197 -3 416 -3 353 1 397 -1 397 -14 1 -49 1 -530 0
-661 l0 -155 -415 0 -415 0 0 -417 0 -418 411 1 c226 0 413 -2 415 -4 3 -2 5
-189 5 -416 l0 -411 417 2 417 3 0 413 -1 412 31 0 c195 1 694 1 740 1 l60 -1
0 -397 c0 -219 1 -406 3 -415 4 -17 32 -18 417 -18 l414 0 0 412 c0 226 2 413
4 415 2 2 189 3 416 3 l411 1 0 417 0 417 -415 0 -415 -1 -1 298 c0 164 0 318
0 343 0 25 0 78 0 118 l1 73 415 -1 415 0 0 418 0 418 -411 -1 c-226 -1 -413
1 -415 3 -3 2 -5 189 -5 416 l0 411 -414 0 c-321 0 -414 -3 -417 -12 -2 -7 -3
-194 -3 -415 l1 -403 -30 0 c-100 -1 -543 -1 -661 0 l-141 0 0 413 1 412 -418
3 -417 2 1 -372z m1665 -1708 l-1 -415 -415 0 -416 -1 2 416 c0 228 2 415 3
415 0 1 187 1 414 1 l413 0 0 -416z"/>
</g>
</svg>
